<svg width="129" height="48" viewBox="0 0 129 48" fill="none" xmlns="http://www.w3.org/2000/svg">
<g  clip-path="url(#clip0_333_1360)">
<path d="M13.9092 13.1064V22.1942H4.49227V13.1064H0.0214844V34.7997H4.49227V26.0071H13.9092V34.7997H18.38V13.1064H13.9092Z" fill="#33475B"/>
<path d="M32.6882 27.7869C32.6882 28.6563 32.2985 29.4901 31.6049 30.1049C30.9113 30.7196 29.9705 31.065 28.9896 31.065C28.0086 31.065 27.0679 30.7196 26.3742 30.1049C25.6806 29.4901 25.2909 28.6563 25.2909 27.7869V18.4953H21.0502V27.7869C21.0502 29.6513 21.8858 31.4394 23.3733 32.7578C24.8608 34.0761 26.8783 34.8168 28.9819 34.8168C31.0855 34.8168 33.103 34.0761 34.5905 32.7578C36.078 31.4394 36.9137 29.6513 36.9137 27.7869V18.4953H32.6882V27.7869Z" fill="#33475B"/>
<path d="M64.1096 19.4529C64.1096 17.5484 65.5312 16.9446 67.0887 16.9446C68.3438 16.9446 70.002 17.7911 71.0863 18.8181L73.8638 15.9176C72.4773 14.2558 69.6647 13.1065 67.3625 13.1065C62.7624 13.1065 59.4351 15.4944 59.4351 19.4529C59.4351 26.7973 69.5639 24.4676 69.5639 28.5775C69.5639 29.8453 68.1751 30.9655 66.5848 30.9655C64.0767 30.9655 63.2641 29.8783 62.1119 28.729L59.0299 31.5693C61.0013 33.7145 63.4327 34.8036 66.3461 34.8036C70.7161 34.8036 74.2318 32.3866 74.2318 28.6086C74.2318 20.4547 64.103 22.9882 64.103 19.4529" fill="#33475B"/>
<path d="M126.771 31.3341C124.265 31.3341 123.553 30.3731 123.553 28.9015V22.3881H127.448V19.0877H123.553V14.7331L119.253 16.4435V29.7111C119.253 33.1047 121.895 34.815 125.518 34.815C126.086 34.8242 126.654 34.7839 127.213 34.6947L128.263 31.272C127.789 31.3011 127.246 31.3302 126.771 31.3302" fill="#33475B"/>
<path d="M48.831 18.6049C46.7303 18.6049 45.2649 19.1446 43.8476 20.3774V13.2369H39.6003V26.4715C39.6003 31.4259 43.6417 34.8195 48.1826 34.8195C53.2207 34.8195 57.6521 31.3658 57.6521 26.7141C57.6521 22.1208 53.5734 18.6068 48.831 18.6068V18.6049ZM48.8047 31.0318C47.8516 31.0318 46.9198 30.7813 46.1274 30.312C45.3349 29.8427 44.7172 29.1757 44.3524 28.3952C43.9877 27.6148 43.8923 26.756 44.0782 25.9275C44.2642 25.099 44.7231 24.3379 45.3971 23.7406C46.071 23.1433 46.9297 22.7365 47.8645 22.5717C48.7993 22.4069 49.7683 22.4915 50.6489 22.8148C51.5294 23.138 52.2821 23.6855 52.8116 24.3878C53.3411 25.0902 53.6238 25.916 53.6238 26.7607C53.6238 27.8935 53.116 28.9799 52.2123 29.7809C51.3085 30.5818 50.0828 31.0318 48.8047 31.0318Z" fill="#33475B"/>
<path d="M94.9493 26.5153C94.9493 21.8559 90.5267 18.4099 85.4798 18.4099C80.939 18.4099 76.8975 21.8035 76.8975 26.758V40.0003H81.1449V32.8501C82.5599 34.0809 84.0275 34.6226 86.126 34.6226C90.8684 34.6226 94.9471 31.1106 94.9471 26.5153H94.9493ZM90.9276 26.4687C90.9276 27.3134 90.6449 28.1392 90.1154 28.8416C89.5859 29.544 88.8333 30.0914 87.9527 30.4147C87.0721 30.7379 86.1032 30.8225 85.1684 30.6577C84.2335 30.4929 83.3749 30.0861 82.7009 29.4888C82.0269 28.8915 81.568 28.1304 81.382 27.3019C81.1961 26.4734 81.2915 25.6146 81.6563 24.8342C82.021 24.0538 82.6387 23.3867 83.4312 22.9174C84.2237 22.4481 85.1554 22.1976 86.1085 22.1976C87.3866 22.1976 88.6124 22.6476 89.5161 23.4486C90.4199 24.2495 90.9276 25.3359 90.9276 26.4687Z" fill="#33475B"/>
<path d="M108.628 18.3496V14.6066C109.186 14.3756 109.659 14.0088 109.991 13.5489C110.323 13.089 110.501 12.555 110.503 12.009V11.9216C110.501 11.1587 110.158 10.4276 109.549 9.88807C108.941 9.34858 108.116 9.04458 107.255 9.04254H107.156C106.295 9.04458 105.47 9.34858 104.862 9.88807C104.253 10.4276 103.91 11.1587 103.908 11.9216V12.009C103.91 12.555 104.088 13.089 104.42 13.5489C104.752 14.0088 105.225 14.3756 105.783 14.6066V18.3496C104.178 18.5671 102.667 19.1565 101.402 20.0581L89.8054 12.0614C89.8879 11.7976 89.9321 11.5256 89.9368 11.2519C89.9377 10.6095 89.7236 9.98128 89.3216 9.44673C88.9197 8.91217 88.3479 8.49527 87.6786 8.24873C87.0093 8.00219 86.2725 7.93708 85.5615 8.06166C84.8504 8.18623 84.197 8.49487 83.6839 8.94857C83.1708 9.40226 82.821 9.98063 82.6787 10.6105C82.5364 11.2404 82.6081 11.8936 82.8847 12.4873C83.1613 13.0811 83.6303 13.5889 84.2325 13.9464C84.8346 14.3039 85.5429 14.4952 86.2677 14.496C86.9044 14.4939 87.5292 14.3432 88.0793 14.0591L99.4807 21.9257C98.4538 23.2989 97.918 24.9146 97.9434 26.5619C97.9688 28.2091 98.5542 29.8113 99.6231 31.1591L96.1534 34.2343C95.8749 34.1557 95.5848 34.1138 95.2925 34.11C94.6968 34.11 94.1145 34.2666 93.6192 34.5599C93.1239 34.8532 92.7378 35.2701 92.5099 35.7579C92.2819 36.2457 92.2223 36.7824 92.3385 37.3002C92.4547 37.818 92.7416 38.2937 93.1628 38.667C93.584 39.0403 94.1207 39.2946 94.7049 39.3976C95.2892 39.5006 95.8948 39.4477 96.4451 39.2457C96.9955 39.0436 97.4659 38.7015 97.7969 38.2625C98.1278 37.8235 98.3045 37.3074 98.3045 36.7794C98.3004 36.5204 98.2532 36.2633 98.1643 36.0165L101.597 32.9743C102.717 33.7328 104.018 34.2544 105.401 34.4993C106.784 34.7441 108.211 34.7058 109.574 34.3871C110.938 34.0685 112.201 33.478 113.267 32.6607C114.334 31.8434 115.176 30.8209 115.729 29.6713C116.281 28.5217 116.53 27.2754 116.457 26.0275C116.383 24.7796 115.989 23.5631 115.304 22.4709C114.619 21.3786 113.661 20.4395 112.504 19.7253C111.347 19.0111 110.022 18.5405 108.628 18.3496ZM107.207 30.6621C106.267 30.6621 105.349 30.4152 104.568 29.9527C103.787 29.4902 103.179 28.8329 102.819 28.0638C102.46 27.2947 102.366 26.4484 102.549 25.632C102.732 24.8155 103.184 24.0655 103.849 23.4769C104.513 22.8883 105.359 22.4874 106.28 22.325C107.201 22.1626 108.156 22.2459 109.024 22.5645C109.892 22.8831 110.633 23.4225 111.155 24.1147C111.677 24.8069 111.956 25.6206 111.956 26.4531C111.956 27.5694 111.455 28.6399 110.565 29.4293C109.674 30.2186 108.466 30.6621 107.207 30.6621Z" fill="#FF7A59"/>
</g>
<defs>
<clipPath id="clip0_333_1360">
<rect width="128.626" height="48" fill="white" transform="translate(0.0214844)"/>
</clipPath>
</defs>
</svg>

