<svg width="127" height="48" viewBox="0 0 127 48" fill="none" xmlns="http://www.w3.org/2000/svg">
<g clip-path="url(#clip0_333_1362)">
<path d="M18.138 38.0663C16.2539 38.3595 14.3366 38.4474 12.3533 38.6816L6.304 22.9786V39.3555C4.4199 39.5313 2.70104 39.7656 0.916016 40V10H5.94061L12.816 27.0217V10H18.138V38.0663ZM28.5505 20.9863C30.6001 20.9863 33.7404 20.8984 35.6245 20.8984V25.5858C33.2774 25.5858 30.5339 25.5858 28.5505 25.6737V32.6465C31.6579 32.4708 34.7651 32.2362 37.9052 32.1483V36.6597L23.2615 37.6854V10H37.9052V14.6875H28.5505V20.9863ZM57.5733 14.6876H52.0861V36.2501C50.3011 36.2501 48.5161 36.2501 46.7974 36.3085V14.6876H41.3103V10H57.5735L57.5733 14.6876ZM66.1677 20.6642H73.407V25.3516H66.1677V35.9864H60.9776V10H75.7539V14.6875H66.1677V20.6642ZM84.3483 31.8848C87.3565 31.9432 90.3974 32.1486 93.3395 32.2948V36.9238C88.6126 36.66 83.8856 36.3966 79.0595 36.3085V10H84.3483V31.8848ZM97.8019 37.2461C99.4878 37.3341 101.273 37.422 102.992 37.5975V10H97.8019V37.2461ZM126.164 10L119.453 24.2676L126.164 40C124.18 39.7656 122.197 39.4433 120.214 39.1503L116.412 30.4786L112.545 38.4474C110.628 38.1542 108.777 38.0663 106.86 37.8319L113.669 24.0917L107.52 10H113.206L116.677 17.8809L120.379 10H126.164V10Z" fill="#D81F26"/>
</g>
<defs>
<clipPath id="clip0_333_1362">
<rect width="125.241" height="48" fill="white" transform="translate(0.916016)"/>
</clipPath>
</defs>
</svg>

