<svg width="127" height="48" viewBox="0 0 127 48" fill="none" xmlns="http://www.w3.org/2000/svg">
<g  clip-path="url(#clip0_333_1359)">
<path fill-rule="evenodd" clip-rule="evenodd" d="M125.956 30.5633C120.7 38.4606 112.377 36.1691 109.877 34.3749C108.813 35.0147 106.947 36.417 104.46 36.255C99.1622 35.9104 97.2651 29.2007 97.2651 29.2007C97.3032 29.2275 95.6871 29.6949 94.8137 29.6866C94.8024 31.6542 92.8833 36.3546 87.704 36.2945C81.892 36.2273 80.7105 28.5531 80.7105 28.5531C80.7105 28.5531 80.1321 29.2649 77.933 29.9739C78.0437 28.4622 77.9628 36.0644 70.9969 36.1761C65.4899 36.2646 64.0034 28.4348 64.0034 28.4348C64.0034 28.4348 63.048 29.3143 61.1966 29.6194C61.3143 28.0831 61.123 36.2019 54.1563 36.1761C49.4483 36.1588 47.8394 31.353 47.9645 30.686C48.1242 29.8359 46.3734 36.2957 41.8003 36.195C39.9131 36.1459 38.5061 34.9349 37.6233 33.3204C36.4414 34.5189 34.7255 36.195 32.8006 36.195C29.3453 36.195 27.822 33.6337 28.08 26.3179C28.102 25.4502 28.0313 25.109 27.0581 24.9792C26.474 24.8928 25.8758 24.7292 25.2428 24.643C25.0399 25.243 23.3192 35.9998 17.4023 36.204C15.4173 36.2725 14.3319 34.7485 13.4406 33.6174C12.0742 35.2194 10.2705 36.255 7.70095 36.255C3.34836 36.255 0.382812 33.1365 0.382812 29.2895C0.382812 25.4425 3.34836 22.3242 7.70095 22.3242C8.47053 22.3242 8.68657 22.422 9.38963 22.6038C7.94377 10.9365 11.3583 9.11303 14.3453 9.11303C17.213 9.11303 22.1122 15.012 15.2186 29.9751C16.7491 34.4381 20.0486 34.1857 21.6341 24.9982C21.9568 23.1307 21.0939 20.6105 22.436 20.2588C24.8893 19.616 25.1496 21.5446 26.2999 21.866C27.5162 22.2056 28.2261 22.1724 29.3938 22.3885C31.389 22.7339 32.1676 23.6838 31.9245 25.7996C31.6326 28.4767 31.1219 32.3732 32.679 32.8481C33.8018 33.1931 35.8518 31.1293 36.2115 30.0001C36.5711 28.871 36.6463 28.4845 36.6782 27.6563C36.7269 25.8861 36.7879 24.5886 37.1285 23.2499C37.2743 22.7319 37.4404 22.3888 38.1017 22.3654C38.6458 22.3531 39.6409 22.2079 40.0789 22.51C40.6627 22.8988 40.5897 23.2933 40.5227 24.3316C39.8437 39.1353 45.0697 31.7452 46.6279 25.8279C46.0731 19.1369 46.454 9.23555 51.1848 9.06949C53.6453 8.98313 54.733 10.7301 54.8526 12.034C55.191 15.7168 53.2954 21.8172 50.8024 25.9197C49.3776 34.2907 57.032 35.9459 58.2561 29.2642C56.2534 28.4202 54.0891 25.0044 55.8503 23.3397C56.8386 22.4055 60.9524 23.7476 61.0197 26.6748C63.0376 26.1965 63.307 25.1867 63.335 25.354C62.7803 18.663 63.2948 9.23564 68.026 9.06957C70.486 8.98321 71.5736 10.7301 71.6932 12.0341C72.0317 15.7168 70.136 21.8173 67.6434 25.9199C66.2184 34.2907 73.873 35.946 75.0968 29.2643C73.614 29.0107 70.4841 25.3775 72.29 23.3398C73.2551 22.2509 77.3538 24.5154 77.8127 26.7717C79.7512 26.2855 80.0144 25.3078 80.0422 25.4724C79.4874 18.7816 80.0019 9.35422 84.733 9.18815C87.1931 9.10179 88.2807 10.8487 88.4003 12.1527C88.7387 15.8354 86.8431 21.936 84.3501 26.0385C82.9255 34.4095 90.5799 36.0644 91.804 29.3827C89.7664 29.082 86.8706 25.2458 89.2013 23.2833C90.1324 22.4992 93.6905 24.5346 94.5234 26.8568C95.6806 26.8173 96.401 26.4636 96.5554 26.4279C94.7079 18.573 96.0832 9.14836 101.173 9.06969C103.924 9.02721 106.613 10.3877 105.432 17.8606C104.306 24.9906 100.255 27.9827 100.265 28.0285C100.501 28.8827 102.579 36.0312 107.812 32.2594C107.542 31.7157 107.27 31.1603 107.119 30.4874C106.251 26.5677 107.955 22.1404 112.586 21.4249C115.239 21.0149 117.739 22.1598 118.134 24.741C118.784 28.9645 114.481 32.0233 112.845 32.6868C112.112 32.3178 119.488 36.5107 123.866 28.108C124.12 27.6282 124.426 27.6689 124.822 27.9162C125.102 28.0908 126.697 29.4299 125.956 30.5633ZM10.8671 28.2517C10.6443 27.6615 10.1872 26.361 10.0256 25.7976C9.13533 25.1114 8.49991 25 7.35721 25C4.81778 25 3.32311 27.0809 3.32311 29.3247C3.32311 31.5684 4.95144 33.6496 7.49089 33.6496C9.69161 33.6496 11.3666 32.3235 11.8776 30.4462C11.5199 29.7143 11.1651 29.0417 10.8671 28.2517ZM14.2831 12.2015C12.4988 12.2015 11.8935 15.974 12.0109 19.1924C12.1148 22.0378 13.0119 24.5428 13.4773 25.6653C13.5955 25.8059 13.5735 25.7144 13.679 25.8636C16.7772 19.8472 15.4922 12.2015 14.2831 12.2015ZM51.4397 12.32C49.1335 12.0855 49.1484 20.6001 49.4347 22.51C50.6325 20.8118 52.7131 12.7772 51.4397 12.32ZM68.2803 12.32C65.9741 12.0855 65.989 20.6001 66.2755 22.51C67.4731 20.8118 69.5539 12.7772 68.2803 12.32ZM84.9876 12.4384C82.6812 12.204 82.6961 20.7186 82.9826 22.6287C84.1802 20.9303 86.261 12.8956 84.9876 12.4384ZM101.427 11.8215C97.8341 12.461 98.6707 23.0789 99.2165 24.9412C103.449 19.789 103.536 11.628 101.427 11.8215ZM114.893 25.0903C114.711 24.4133 113.797 24.0515 113.167 24.1407C111.363 24.359 109.613 26.3505 110.29 29.3824C110.441 30.0576 110.818 30.6792 110.812 30.6585C114.85 28.2577 115.193 26.3659 114.893 25.0903ZM38.809 20.0218C38.2933 20.0219 37.7893 19.8864 37.3605 19.6326C36.9317 19.3787 36.5974 19.0179 36.4 18.5957C36.2026 18.1735 36.151 17.7089 36.2516 17.2607C36.352 16.8124 36.6004 16.4007 36.965 16.0775C37.3295 15.7543 37.7941 15.5342 38.2998 15.4451C38.8055 15.3559 39.3298 15.4016 39.8062 15.5765C40.2826 15.7514 40.6897 16.0476 40.9762 16.4276C41.2626 16.8076 41.4155 17.2544 41.4155 17.7114C41.4155 18.0148 41.3482 18.3152 41.2171 18.5955C41.0862 18.8758 40.8942 19.1305 40.6521 19.345C40.41 19.5596 40.1227 19.7298 39.8065 19.8459C39.4903 19.962 39.1514 20.0218 38.809 20.0218Z" fill="white"/>
</g>
<defs>
<clipPath id="clip0_333_1359">
<rect width="126.369" height="48" fill="white" transform="translate(0.382812)"/>
</clipPath>
</defs>
</svg>

